0
SECTION
2
HEADER
9
$INSUNITS
70
4
9
$ACADVER
1
AC1014
9
$HANDSEED
5
FFFF
0
ENDSEC
0
SECTION
2
TABLES
0
TABLE
2
VPORT
5
8
100
AcDbSymbolTable
0
ENDTAB
0
TABLE
2
LTYPE
5
5
100
AcDbSymbolTable
0
LTYPE
5
14
100
AcDbSymbolTableRecord
100
AcDbLinetypeTableRecord
2
BYBLOCK
70
0
0
LTYPE
5
15
100
AcDbSymbolTableRecord
100
AcDbLinetypeTableRecord
2
BYLAYER
70
0
0
ENDTAB
0
TABLE
2
LAYER
5
2
100
AcDbSymbolTable
70
2
0
LAYER
5
50
100
AcDbSymbolTableRecord
100
AcDbLayerTableRecord
2
0
70
0
6
CONTINUOUS
0
ENDTAB
0
TABLE
2
STYLE
5
3
100
AcDbSymbolTable
70
1
0
STYLE
5
11
100
AcDbSymbolTableRecord
100
AcDbTextStyleTableRecord
2
STANDARD
70
0
0
ENDTAB
0
TABLE
2
VIEW
5
6
100
AcDbSymbolTable
70
0
0
ENDTAB
0
TABLE
2
UCS
5
7
100
AcDbSymbolTable
70
0
0
ENDTAB
0
TABLE
2
APPID
5
9
100
AcDbSymbolTable
70
2
0
APPID
5
12
100
AcDbSymbolTableRecord
100
AcDbRegAppTableRecord
2
ACAD
70
0
0
ENDTAB
0
TABLE
2
DIMSTYLE
5
A
100
AcDbSymbolTable
70
1
0
ENDTAB
0
TABLE
2
BLOCK_RECORD
5
1
100
AcDbSymbolTable
70
1
0
BLOCK_RECORD
5
1F
100
AcDbSymbolTableRecord
100
AcDbBlockTableRecord
2
*MODEL_SPACE
0
BLOCK_RECORD
5
1B
100
AcDbSymbolTableRecord
100
AcDbBlockTableRecord
2
*PAPER_SPACE
0
ENDTAB
0
ENDSEC
0
SECTION
2
BLOCKS
0
BLOCK
5
20
100
AcDbEntity
100
AcDbBlockBegin
2
*MODEL_SPACE
0
ENDBLK
5
21
100
AcDbEntity
100
AcDbBlockEnd
0
BLOCK
5
1C
100
AcDbEntity
100
AcDbBlockBegin
2
*PAPER_SPACE
0
ENDBLK
5
1D
100
AcDbEntity
100
AcDbBlockEnd
0
ENDSEC
0
SECTION
2
ENTITIES
0
LWPOLYLINE
5
100
100
AcDbEntity
8
0
100
AcDbPolyline
90
255
70
1
43
0.0
10
46.992123275486854
20
2.961799886209064
10
47.014165648361079
20
2.8837260813174903
10
47.029289382950992
20
2.8017773791721083
10
47.037103415704671
20
2.7160225950160566
10
47.058634379315656
20
-4.8411259762456211
10
47.028438900076694
20
-5.4868994318590012
10
46.967699190718115
20
-5.7192566177859572
10
46.901676855372891
20
-5.8654722673577453
10
46.835986712566864
20
-5.969071476645694
10
46.786232079880847
20
-6.0326738788035081
10
46.731500649255395
20
-6.0907337610647128
10
46.672228933994113
20
-6.1432803666234568
10
46.608853447397891
20
-6.1903429386734388
10
46.541810702770363
20
-6.2319507204188085
10
46.471537213421925
20
-6.2681329550496221
10
46.398469492651643
20
-6.2989188857654881
10
46.323044053764988
20
-6.3243377557737412
10
46.24569741006826
20
-6.344418808255794
10
46.166866074860536
20
-6.3591912864144433
10
46.08698656144589
20
-6.3686844334547459
10
46.006495383135643
20
-6.3729274925658519
10
45.925829053231141
20
-6.371949706952817
10
45.845424085029663
20
-6.3657803198084384
10
45.765716991844776
20
-6.3544485743227588
10
45.687144286976036
20
-6.3379837137067625
10
45.610142483727941
20
-6.316414981150503
10
45.535148095403656
20
-6.2897716198576736
10
45.462597635308619
20
-6.2580828730110625
10
45.392927616746434
20
-6.2213779838216388
10
45.32657455302386
20
-6.1796861954849192
10
45.263974957440041
20
-6.1330367511968698
10
45.205565343304912
20
-6.0814588941498169
10
45.151782223915681
20
-6.024981867551559
10
45.103062112582386
20
-5.9636349145907843
10
45.059841522607698
20
-5.8974472784698264
10
45.022556967296168
20
-5.8264482023837445
10
44.991644959946832
20
-5.7506669295285047
10
44.96754201387057
20
-5.6701327031055371
10
44.952684305339965
20
-5.598428461383719
10
44.91872617962099
20
-5.3822012376735966
10
44.891146869708784
20
-5.0187825788198079
10
44.895991617111122
20
-3.5533601867205111
10
42.828058049611172
20
-3.5524648125997365
10
42.822800507178719
20
-4.4029753957315734
10
42.833709304756653
20
-5.1387912504537789
10
42.84940261832979
20
-5.3824994748688368
10
42.874089436625113
20
-5.6244391722225364
10
42.890361343953828
20
-5.7445608238472223
10
42.909548748157242
20
-5.8640183444326786
10
42.931874022797729
20
-5.9827377341985084
10
42.95755954144397
20
-6.1006449934025131
10
42.986827677656478
20
-6.217666122277933
10
43.019900805002635
20
-6.3337271210543822
10
43.057001297043833
20
-6.4487539899878357
10
43.098351527347859
20
-6.5626727293056319
10
43.144173869477967
20
-6.6754093392428313
10
43.194690696998805
20
-6.7868898200545136
10
43.25012438347494
20
-6.8970401719698202
10
43.310697302474622
20
-7.0057863952247335
10
43.366815827372648
20
-7.0989708896036063
10
43.426823770212188
20
-7.1887568827528403
10
43.490565015927132
20
-7.2751440884962904
10
43.557883449443572
20
-7.3581322206514423
10
43.628622955699939
20
-7.4377209930348709
10
43.702627419623219
20
-7.5139101194695268
10
43.779740726141881
20
-7.5866993137647132
10
43.85980676019517
20
-7.6560882897533711
10
43.942669406708774
20
-7.7220767612425334
10
44.028172550617001
20
-7.7846644420505973
10
44.116160076854158
20
-7.8438510460077859
10
44.206475870344548
20
-7.899636286927942
10
44.298963816022933
20
-7.952019878619466
10
44.393467798824979
20
-8.0010015349166679
10
44.489831703677744
20
-8.0465809696329416
10
44.587899415513228
20
-8.0887578965835019
10
44.687514819263924
20
-8.1275320295876554
10
44.788521799858707
20
-8.162903082473802
10
44.890764242231853
20
-8.1948707690416995
10
44.994086031314062
20
-8.2234348031283844
10
45.098331052041885
20
-8.2485948985508912
10
45.203343189336913
20
-8.2703507691176128
10
45.308966328135739
20
-8.2887021286505842
10
45.415044353374007
20
-8.3036486909768428
10
45.521421149976042
20
-8.3151901699097817
10
45.627940602877068
20
-8.3233262792664391
10
45.734446597009068
20
-8.3280567328724828
10
45.840783017299138
20
-8.3293812445326694
10
45.946793748688833
20
-8.3272995280835858
10
46.042619701340286
20
-8.3308861752016128
10
46.235527828465834
20
-8.331285240618854
10
46.429340967212724
20
-8.3223940505117753
10
46.623135176605047
20
-8.3039030643817551
10
46.815986515665827
20
-8.2755027417238125
10
47.006971043414076
20
-8.2368835420397772
10
47.101474521489763
20
-8.213645131903375
10
47.195164818875114
20
-8.1877359248246648
10
47.287926442941625
20
-8.1591172282337538
10
47.379643901069812
20
-8.1277503495798555
10
47.470201700637517
20
-8.0935965962808041
10
47.559484349024849
20
-8.0566172757917229
10
47.647376353600983
20
-8.0167736955427245
10
47.733762221755562
20
-7.974027162969378
10
47.818526460857811
20
-7.928338985512255
10
47.901553578287796
20
-7.8796704706123801
10
47.982728081426103
20
-7.8279829256966877
10
48.061934477645529
20
-7.7732376582130192
10
48.139057274328927
20
-7.715395975588307
10
48.213980978850032
20
-7.6544191852626682
10
48.28659009859166
20
-7.5902685946757629
10
48.356769140925728
20
-7.5229055112672549
10
48.424402613235991
20
-7.4522912424736205
10
48.489375022893896
20
-7.3783870957295239
10
48.554673531697972
20
-7.298384422478648
10
48.616274549365244
20
-7.2164228302667643
10
48.674278265080844
20
-7.1325941952413796
10
48.728784868035291
20
-7.0469903935368174
10
48.779894547416902
20
-6.9597033012987586
10
48.827707492405814
20
-6.8708247946728989
10
48.872323892195709
20
-6.7804467497958276
10
48.913843935979919
20
-6.6886610428136919
10
48.952367812933062
20
-6.5955595498703579
10
48.987995712255277
20
-6.501234147103788
10
49.020827823123
20
-6.4057767106564825
10
49.05096433473318
20
-6.3092791166704965
10
49.103551316916771
20
-6.1135309606597721
10
49.146558172302768
20
-5.914724688204843
10
49.180786414394788
20
-5.7135953084475659
10
49.217422188395631
20
-5.4091532451075182
10
49.23881459592576
20
-5.1036186167307287
10
49.247941667866613
20
-4.5987038975658816
10
49.246595489036281
20
2.1172426946172891
10
49.244906670519413
20
2.2147987496514361
10
49.224963954452967
20
2.6090462768402163
10
49.19367487521594
20
2.9060880000774887
10
49.163706953915607
20
3.1032249269815115
10
49.12562379513794
20
3.298693011500291
10
49.07871533371555
20
3.4916727123181763
10
49.022271504470609
20
3.6813444881440764
10
48.990251931550581
20
3.7746837975264502
10
48.955582242238975
20
3.8668887976682531
10
48.918173678386211
20
3.957857045912077
10
48.877937481849145
20
4.0474860995955151
10
48.834784894478176
20
4.1356735160511562
10
48.788627158129657
20
4.2223168526143109
10
48.7393755146568
20
4.3073136666266691
10
48.686941205912717
20
4.3905615154249062
10
48.631235473751069
20
4.4719579563502521
10
48.572169560025955
20
4.5514005467334737
10
48.509654706592293
20
4.6287868439121649
10
48.44360215530196
20
4.7040144052261894
10
48.373923148008089
20
4.7769807880035842
10
48.286049249399653
20
4.8618107863780988
10
48.194934889106662
20
4.9415262239344884
10
48.100746743046798
20
5.0162268992085037
10
48.003651487129915
20
5.0860126107595516
10
47.903815797272273
20
5.1509831571352152
10
47.801406349382887
20
5.2112383368826158
10
47.696589819378012
20
5.2668779485611594
10
47.589532883167067
20
5.3180017907184247
10
47.480402216669063
20
5.3647096619001768
10
47.369364495790698
20
5.4071013606621801
10
47.256586396450075
20
5.4452766855542913
10
47.142234594557976
20
5.479335435126357
10
47.026475766027495
20
5.5093774079236937
10
46.909476586773053
20
5.535502402493421
10
46.791403732707757
20
5.5578102174035839
10
46.672423879741459
20
5.5764006511949429
10
46.552703703793213
20
5.5913735024164453
10
46.432409880771949
20
5.6028285696174862
10
46.311709086588053
20
5.6108656513556534
10
46.190767997164109
20
5.6155845461703393
10
46.069753288403717
20
5.6170850526200411
10
45.948831636227176
20
5.6154669692546113
10
45.828169716539833
20
5.6108300946211767
10
45.707934205261608
20
5.6032742272673204
10
45.588291778302839
20
5.5928991657551697
10
45.469409111575267
20
5.5798047086304905
10
45.351452880996931
20
5.564090654440407
10
45.234589762474108
20
5.5458568017343159
10
45.118986431928995
20
5.5252029490625301
10
45.029544577967954
20
5.5074702377901303
10
44.940837880900744
20
5.4866234321052634
10
44.852954174517443
20
5.4627168402294037
10
44.765981292604017
20
5.4358047703858574
10
44.680007068945542
20
5.4059415308042835
10
44.595119337333912
20
5.3731814297075271
10
44.511405931557874
20
5.337578775317068
10
44.4289546853961
20
5.2991878758625708
10
44.347853432645024
20
5.2580630395705166
10
44.268190007087924
20
5.2142585746582881
10
44.190052242514867
20
5.1678287893591914
10
44.113527972709107
20
5.1188279918965236
10
44.038705031459806
20
5.0673104904931261
10
43.965671252557968
20
5.0133305933745751
10
43.89451446978682
20
4.9569426087714419
10
43.8253225169369
20
4.8982008448997458
10
43.75818322779196
20
4.8371596099850649
10
43.693184436141564
20
4.773873212266607
10
43.630413975774893
20
4.7083959599563041
10
43.569959680477048
20
4.6407821612760909
10
43.511909384036251
20
4.5710861244656362
10
43.456350920236673
20
4.4993621577373233
10
43.403372122875226
20
4.4256645693271812
10
43.353060825731049
20
4.3500476674485071
10
43.305504862590624
20
4.2725657603336913
10
43.260792067248971
20
4.193273156209214
10
43.219010273491222
20
4.1122241632901932
10
43.180247315098761
20
4.029473089817202
10
43.1445910258617
20
3.9450742440044451
10
43.097336532659043
20
3.8269348175604128
10
43.054752495283083
20
3.7079492583793581
10
43.016608286486644
20
3.58816410882946
10
42.982673279042054
20
3.4676259112616186
10
42.952716845712537
20
3.3463812080231028
10
42.926508359260886
20
3.2244765414752679
10
42.903817192448976
20
3.1019584539772032
10
42.884412718041389
20
2.978873487879353
10
42.868064308804151
20
2.8552681855385345
10
42.854541337493181
20
2.7311890893156483
10
42.835049199734819
20
2.4817956846159159
10
42.824091286865041
20
2.2310656126496706
10
42.830922169844598
20
1.096222366490565
10
42.827703865568758
20
0.34556675553039895
10
44.896427779533937
20
0.34647992175314363
10
44.897264287092177
20
2.4806769830192921
10
44.929949057550857
20
2.7988849035664316
10
45.015313649346808
20
3.070666213710409
10
45.101532264241072
20
3.2244291035672168
10
45.191257088487866
20
3.3338960754640521
10
45.271703749219789
20
3.4061911253702415
10
45.336367409700877
20
3.4530188010271567
10
45.404280084321272
20
3.4941823830026801
10
45.47505070953185
20
3.5297506865231281
10
45.548288221773873
20
3.559792526851651
10
45.623601557495938
20
3.5843767192295672
10
45.700599653137466
20
3.6035720789063812
10
45.77889144514802
20
3.6174474211302368
10
45.858085869974722
20
3.6260715611465466
10
45.937791864059811
20
3.6295133142025415
10
46.0176183638482
20
3.6278414955445437
10
46.097174305787114
20
3.6211249204252454
10
46.176068626315534
20
3.6094324040914216
10
46.25391026188754
20
3.592832761785302
10
46.330308148943914
20
3.5713948087591225
10
46.404871223930954
20
3.5451873602592054
10
46.477208423290904
20
3.5142792315273255
10
46.5469286834741
20
3.4787392378202631
10
46.61364094092005
20
3.4386361943766142
10
46.676954132080922
20
3.3940389164563385
10
46.736477193395338
20
3.3450162192912103
10
46.791819061307237
20
3.2916369181452865
10
46.842588672269812
20
3.2339698282494282
10
46.888394962725208
20
3.1720837648604179
10
46.928846869116107
20
3.106047543229578
10
46.963553327889251
20
3.0359299785964131
0
LWPOLYLINE
5
101
100
AcDbEntity
8
0
100
AcDbPolyline
90
122
70
1
43
0.0
10
80.541163671067807
20
-0.052230404718557097
10
80.434561143646533
20
-0.030603846292706301
10
80.330022792613818
20
-0.00072535598383179686
10
80.227893847927575
20
0.038581276840432097
10
80.177840787330751
20
0.062137712527601308
10
80.128519539563982
20
0.088492262825184298
10
80.079973258370956
20
0.1177919540691619
10
80.033476545298981
20
0.15000456116422362
10
79.989704066200829
20
0.1842556708093071
10
79.948569808629145
20
0.22044776454413301
10
79.909987760127933
20
0.25848332389659839
10
79.873871908243018
20
0.29826483040005769
10
79.840136240510674
20
0.33969476558968381
10
79.779461407706094
20
0.42710984812265462
10
79.727275162062142
20
0.51994842374506345
10
79.68288940394585
20
0.61743034471646763
10
79.629431462908087
20
0.77065292548059006
10
79.579033651177724
20
0.98392002952232371
10
79.523318062831095
20
1.523257112014561
10
79.51545946046781
20
4.4046942358854713
10
79.339838333714852
20
5.4473423600434216
10
77.130638313386044
20
5.4484626062253474
10
77.187617666400001
20
5.2824389887923653
10
77.234501085308679
20
5.1147859056459311
10
77.272238876826123
20
4.9456826580221769
10
77.313776308692013
20
4.6897009496433375
10
77.340081554224042
20
4.4314649406492181
10
77.356246340053985
20
2.9547574824132412
10
77.35502744419091
20
1.6229260457344008
10
77.383369408665658
20
1.053957855282077
10
77.416136672004086
20
0.77163771973118855
10
77.447012662303692
20
0.58453666751438516
10
77.486204876941869
20
0.39848379135946743
10
77.534648720954905
20
0.21361475888943462
10
77.552381723563485
20
0.14971176343124171
10
77.593708406177939
20
0.024223013977007195
10
77.642604947653126
20
-0.097952251088827408
10
77.698778094762929
20
-0.21654543680278954
10
77.761934594302602
20
-0.33128794823232965
10
77.83178119305785
20
-0.44191119042943705
10
77.908024637806648
20
-0.54814656844564535
10
77.990371675341066
20
-0.64972548733885571
10
78.07852905244907
20
-0.74637935216469486
10
78.221018013391131
20
-0.88153812158270728
10
78.37493068904223
20
-1.0041046727797021
10
78.483396892285782
20
-1.0783723718868701
10
78.596207169028276
20
-1.146372042191615
10
78.713068266054961
20
-1.2078350887595648
10
78.618194324114938
20
-1.259108936772918
10
78.52705313384196
20
-1.3145191572466493
10
78.439619660214703
20
-1.3738980535713368
10
78.355868868218295
20
-1.4370779291307356
10
78.275775722833259
20
-1.5038910873349762
10
78.199315189037861
20
-1.574169831560539
10
78.126462231813548
20
-1.6477464652093643
10
78.057191816141767
20
-1.7244532916770361
10
77.991478907004876
20
-1.8041226143468507
10
77.929298469382957
20
-1.8865867366234854
10
77.870625468256094
20
-1.9716779618825042
10
77.815434868606189
20
-2.059228593541774
10
77.763701635413781
20
-2.149070934972769
10
77.715400733659862
20
-2.2410372895787982
10
77.670507128323607
20
-2.334959960746799
10
77.628995784391918
20
-2.4306712518787204
10
77.590841666839879
20
-2.528003466360587
10
77.556019740649845
20
-2.626788907585706
10
77.524504970802809
20
-2.7268598789528351
10
77.496272322280205
20
-2.8280486838457364
10
77.47129676006216
20
-2.9301876256654387
10
77.449553249135079
20
-3.0331090078038865
10
77.431016754469965
20
-3.1366451336507457
10
77.415662241052814
20
-3.240628306601594
10
77.403464673865059
20
-3.344890830044732
10
77.394399017890009
20
-3.4492650073848368
10
77.388440238104067
20
-3.5535831419988417
10
77.385563299487785
20
-3.6576775372936936
10
77.385743167026703
20
-3.7613804966576936
10
77.38827776631976
20
-3.8719520822273816
10
77.384658470936756
20
-5.2236173208025329
10
77.401956622909893
20
-5.560631495945473
10
77.424149808804032
20
-5.7832046087537492
10
77.439145242532959
20
-5.893658819666598
10
77.457051243632122
20
-6.0034686027647677
10
77.478101317231904
20
-6.1125668099666663
10
77.502528968467686
20
-6.220886293148852
10
77.530567702485314
20
-6.3283599042129035
10
77.562451024408801
20
-6.4349204950599415
10
77.598412439377626
20
-6.5405009175847244
10
77.638685452532627
20
-6.6450340236765451
10
77.683503569003264
20
-6.7484526652388022
10
77.733100293926313
20
-6.850689694163977
10
77.787709132434884
20
-6.9516779623477305
10
77.836690109454139
20
-7.0371454695446101
10
77.889428151479947
20
-7.1190753289156428
10
77.945764022040294
20
-7.1975159607959549
10
78.005538484660988
20
-7.2725157855179523
10
78.068592302878642
20
-7.3441232234185918
10
78.134766240223598
20
-7.412386694842553
10
78.203901060222037
20
-7.4773546201245145
10
78.27583752640156
20
-7.5390754196077978
10
78.350416402302471
20
-7.5975975136202578
10
78.427478451446845
20
-7.652969322510673
10
78.506864437366858
20
-7.705239266612808
10
78.588415123586856
20
-7.754455766254523
10
78.671971273646705
20
-7.8006672417900536
10
78.757373651069884
20
-7.8439221135445223
10
78.844463019391696
20
-7.8842688018626186
10
78.93308014213153
20
-7.9217557270858396
10
79.023065782834692
20
-7.9564313095406769
10
79.114260705016932
20
-7.9883439695736325
10
79.206505672217631
20
-8.0175421275257577
10
79.29964144796304
20
-8.0440742037303608
10
79.393508795787042
20
-8.0679886185157557
10
79.582801261773056
20
-8.1081581452258433
10
79.773109178425784
20
-8.138438070342545
10
79.963158653978084
20
-8.1592157565846701
10
80.151675796673771
20
-8.1708785666464774
10
83.806875391551813
20
-8.1733411357386103
10
83.811067210864167
20
5.4397417799764272
10
81.645016249404335
20
5.4444499038563654
10
81.64476805312006
20
-0.073406075122420603
10
80.759180335184283
20
-0.075432568449741694
0
LWPOLYLINE
5
102
100
AcDbEntity
8
0
100
AcDbPolyline
90
7
70
1
43
0.0
10
117.19567347902512
20
-10.761992325499701
10
114.30721921369792
20
-13.93632570951377
10
108.3068607139348
20
-10.818465234932768
10
108.32396315773659
20
-17.396229760761798
10
108.32419844530611
20
-30.004816529940861
10
122.49074395685241
20
-18.184937493859714
10
117.19760927792231
20
-15.43283889165059
0
LWPOLYLINE
5
103
100
AcDbEntity
8
0
100
AcDbPolyline
90
52
70
1
43
0.0
10
27.08420902214084
20
9.8377349528032028
10
27.014454892626873
20
9.9561055968283636
10
26.953155809114385
20
10.10406890185868
10
26.900311771603359
20
10.27739734489341
10
26.858036541594629
20
10.480318448935119
10
26.826330119089107
20
10.70860469098124
10
26.800964981083325
20
10.964369832533061
10
26.788282412079766
20
11.24761387359149
10
26.784054889078561
20
11.558336814155609
10
26.788282412079766
20
11.860604708716441
10
26.800964981083325
20
12.143848749774403
10
26.824216357587829
20
12.40172765282705
10
26.858036541594629
20
12.630013894874079
10
26.900311771603359
20
12.832934998915331
10
26.951042047614013
20
13.008377203451342
10
27.01234113112605
20
13.156340508481213
10
27.08420902214084
20
13.27893867550619
10
27.107460398646271
20
13.31064509801217
10
27.263878749677133
20
13.483973541048272
10
27.437207192712783
20
13.608685469574542
10
27.627445727751827
20
13.68266712208924
10
27.832480593293901
20
13.708032260093201
10
27.864187015799871
20
13.708032260093201
10
28.067108119841585
20
13.67421207608777
10
28.253119131879881
20
13.591775377570233
10
28.422220051913879
20
13.460722164543313
10
28.576524641445765
20
13.27893867550619
10
28.646278770959732
20
13.1605680314824
10
28.707577854471769
20
13.012604726451171
10
28.760421891984151
20
12.83927628341598
10
28.804810883491431
20
12.638468940875551
10
28.836517305998768
20
12.408068937328149
10
28.861882444003641
20
12.15230379577633
10
28.874565013007221
20
11.869059754718359
10
28.880906297508773
20
11.558336814155609
10
28.880906297508773
20
11.48224140013963
10
28.872451251506842
20
11.18842855157936
10
28.855541159502991
20
10.915753318023231
10
28.828062259996837
20
10.668443222473341
10
28.792128314490132
20
10.44438450342704
10
28.745625561479766
20
10.243577160887519
10
28.68855400096891
20
10.06813495635015
10
28.62302739445477
20
9.9159441283195537
10
28.546931980438792
20
9.7870046767934564
10
28.417992528912691
20
9.6369276102623189
10
28.248891608879148
20
9.5101019202370463
10
28.056539312339744
20
9.4361202677223428
10
27.838821877795912
20
9.4107551297161081
10
27.800774170787012
20
9.4107551297161081
10
27.595739305245854
20
9.4445753137233641
10
27.407614531707175
20
9.527012012240446
10
27.238513611672722
20
9.6580652252673644
0
LWPOLYLINE
5
104
100
AcDbEntity
8
0
100
AcDbPolyline
90
17
70
1
43
0.0
10
57.923799336289001
20
12.25800651067811
10
57.909455586290299
20
12.25800651067811
10
57.909455586290299
20
12.83849807317938
10
58.012013398788902
20
13.319802604428331
10
58.288847773785619
20
13.68090651068041
10
58.695493086287584
20
13.907824635679392
10
59.184614961287494
20
13.985639479430121
10
59.488702461288995
20
13.9362252606802
10
59.75047589878568
20
13.7910665106815
10
59.931207148787067
20
13.564291823181971
10
59.998264180037495
20
13.263431666932322
10
59.95846027378775
20
13.025253698182039
10
59.83940714878873
20
12.84904072943027
10
59.432044648787716
20
12.62613885443125
10
58.883396211289892
20
12.509022135680421
10
58.298888398790503
20
12.420664635680172
10
58.086600898787779
20
12.371250416929342
0
LWPOLYLINE
5
105
100
AcDbEntity
8
0
100
AcDbPolyline
90
17
70
1
43
0.0
10
82.405281523787849
20
12.849040729447552
10
81.998277617537511
20
12.626138854448518
10
81.449270586289927
20
12.509022135698162
10
80.865264805038834
20
12.420664635697449
10
80.652762148788952
20
12.371250416946172
10
80.490104023790536
20
12.258006510696301
10
80.475760273788651
20
12.258006510696301
10
80.475760273788651
20
12.83849807319757
10
80.578461523788988
20
13.319802604446069
10
80.854722148787474
20
13.680906510697691
10
81.261726055037812
20
13.907824635697121
10
81.750489336287046
20
13.985639479448313
10
82.054720273787552
20
13.936225260698389
10
82.316924023787124
20
13.791066510699244
10
82.497583555039
20
13.56429182319925
10
82.564784023788874
20
13.263431666949598
10
82.525123555039045
20
13.025253698200231
0
LWPOLYLINE
5
106
100
AcDbEntity
8
0
100
AcDbPolyline
90
20
70
1
43
0.0
10
74.205748555037644
20
12.997713698190179
10
74.287149336289076
20
12.427621354442181
10
74.20574855503898
20
11.857672448192263
10
73.964916992540566
20
11.358796823192279
10
73.565013242540772
20
11.004721354441241
10
73.305032773787843
20
10.903597916941631
10
73.00575043004028
20
10.870105260688891
10
72.706970117540095
20
10.903597916941631
10
72.446272461290846
20
11.004721354441241
10
72.046368711290597
20
11.35879682319046
10
71.805465430039021
20
11.857672448190439
10
71.724136367538904
20
12.427621354440362
10
71.805465430039021
20
12.997713698189273
10
72.046368711288807
20
13.496947916939011
10
72.446272461287663
20
13.851023385692312
10
72.706970117537807
20
13.951788229440352
10
73.005750430037551
20
13.98563947944103
10
73.305032773786934
20
13.951788229441259
10
73.565013242537589
20
13.851023385693221
10
73.964916992538747
20
13.496947916941282
0
LWPOLYLINE
5
107
100
AcDbEntity
8
0
100
AcDbPolyline
90
11
70
1
43
0.0
10
65.256180898790248
20
10.19738338568731
10
65.188406680040771
20
10.615216823185161
10
65.277194492538911
20
11.02917744818523
10
65.514440117540289
20
11.337424635686602
10
65.861200273788654
20
11.531925885684359
10
66.279033711288776
20
11.59926979193415
10
68.077524805040852
20
11.59926979193642
10
68.07752480504314
20
9.6097916669382357
10
66.279033711290595
20
9.6097916669364167
10
65.797729180040719
20
9.6767052606865036
10
65.457638867540467
20
9.8787369794331426
0
LWPOLYLINE
5
108
100
AcDbEntity
8
0
100
AcDbPolyline
90
9
70
1
43
0.0
10
62.944111836288812
20
10.979834948183449
10
62.455778867540637
20
10.87010526068161
10
61.974044023790157
20
10.979834948182079
10
61.613083555040262
20
11.270080729433632
10
61.38265121128871
20
11.684543385681989
10
61.294293711288901
20
12.172804635682491
10
63.659219492538803
20
12.172804635684313
10
63.542174492538841
20
11.688057604434563
10
63.305215742539993
20
11.270080729434529
0
LWPOLYLINE
5
109
100
AcDbEntity
8
0
100
AcDbPolyline
90
21
70
1
43
0.0
10
43.116740665311212
20
13.539027491555322
10
43.580956031983995
20
13.565554083936602
10
44.655283023431814
20
13.56555408393751
10
44.655283023435004
20
9.7324614848212132
10
43.547797791509765
20
9.7324614848203055
10
43.070319128646133
20
9.7589880772015913
10
42.738736723876173
20
9.8319362062488835
10
42.705578483400132
20
9.8451995024411172
10
42.380627726727653
20
10.057412241492329
10
42.108730154817749
20
10.39562629435431
10
42.102098506722996
20
10.408889590545181
10
41.962833896719971
20
10.733840347218109
10
41.883254119575213
20
11.131739232940161
10
41.856727527193925
20
11.609217895805163
10
41.856727527193925
20
11.781640746284213
10
41.896517415765182
20
12.206066224387083
10
41.982728841003791
20
12.577438517726929
10
42.121993451006801
20
12.895757626304201
10
42.354101134343189
20
13.214076734882383
10
42.433680911487954
20
13.280393215836279
10
42.8050532048278
20
13.472711010601412
0
LWPOLYLINE
5
110
100
AcDbEntity
8
0
100
AcDbPolyline
90
50
70
1
43
0.0
10
79.545833087750452
20
-3.3642183377110086
10
79.557075000447639
20
-3.2160301222215826
10
79.576517035437959
20
-3.0700913448945366
10
79.589863754844828
20
-2.9981631026626006
10
79.605921292079984
20
-2.9270343485090953
10
79.624909909567577
20
-2.8567841252788635
10
79.64704986972265
20
-2.7874914758244813
10
79.672561434969793
20
-2.7192354429894294
10
79.701664867723125
20
-2.6520950696180985
10
79.734580430403639
20
-2.5861493985576067
10
79.77152838542996
20
-2.5214774726623541
10
79.81272899522402
20
-2.4581583347694504
10
79.858402522200308
20
-2.3962710277251049
10
79.907350928513097
20
-2.3492418849468772
10
79.958085105564791
20
-2.3065604167454694
10
80.010507432391933
20
-2.2680232450325093
10
80.064520288021853
20
-2.233426991697796
10
80.120026051492005
20
-2.202568278642957
10
80.176927101832035
20
-2.1752437277632453
10
80.235125818077918
20
-2.1512499609557381
10
80.294524579264817
20
-2.130383600128424
10
80.355025764416951
20
-2.1124412671720161
10
80.478944922773735
20
-2.0845151724515745
10
80.60610232541103
20
-2.0658446519905733
10
80.801201770467742
20
-2.0516339562436761
10
81.584172950792009
20
-2.0566093605125371
10
81.646222212306853
20
-2.0544381835247805
10
81.646116136646029
20
-6.1929751883012614
10
80.561273366301066
20
-6.1959698265136485
10
80.34770224111071
20
-6.171569285552776
10
80.189978913263985
20
-6.1374050662993787
10
80.086270802098625
20
-6.1054246946787316
10
80.029170211663768
20
-6.0713356248184036
10
79.976174850040039
20
-6.0343501522124834
10
79.927133638730979
20
-5.9946167720877375
10
79.881895499233906
20
-5.9522839796586604
10
79.840309353049619
20
-5.9075002701561079
10
79.802224121675863
20
-5.8604141387918389
10
79.767488726616207
20
-5.8111740807935348
10
79.735952089363764
20
-5.7599285913834111
10
79.707463131423538
20
-5.7068261657896082
10
79.681870774293657
20
-5.6520152992275143
10
79.659023939474991
20
-5.5956444869229927
10
79.638771548462955
20
-5.5378622240928044
10
79.605445783866799
20
-5.4186573277679599
10
79.580684852504874
20
-5.2955885720298292
10
79.556958644016049
20
-5.1063393684116818
10
79.543585560151314
20
-4.6027309704568324
10
79.545035737221951
20
-4.4835036969075182
10
79.55095188133464
20
-4.1167689906374081
0
LWPOLYLINE
5
111
100
AcDbEntity
8
0
100
AcDbPolyline
90
55
70
1
43
0.0
10
124.06363044570803
20
-6.6274540670756332
10
124.0576010795389
20
-7.9172675542854432
10
125.02827087213112
20
-7.3090669482307931
10
125.0482146676872
20
-7.2981301717704818
10
125.0851602171588
20
-7.273662041445732
10
125.13392316753692
20
-7.2311295474505641
10
125.18847631497741
20
-7.1653735376025907
10
125.37262581298542
20
-6.7946846597587873
10
134.69480400419479
20
13.02311454105665
10
142.38456414458733
20
13.023710598190522
10
131.7344542159239
20
-9.5546726281727388
10
131.7237151504369
20
-9.5801584417999948
10
131.69913903094991
20
-9.6286253396497159
10
131.65532305412398
20
-9.6956788482607408
10
131.5861459491866
20
-9.7762647208146518
10
131.1898211265547
20
-10.099049740330431
10
127.15031445314609
20
-13.334205806044789
10
126.96975881150001
20
-13.475346025263661
10
126.7427420409976
20
-13.699349076004641
10
126.68194092488511
20
-13.7971888638167
10
124.9817943041007
20
-16.687322928979029
10
132.452053902155
20
-10.71225459698371
10
132.7482654349069
20
-10.362470311210473
10
143.7996597725228
20
13.021451897502169
10
147.91125817434386
20
13.02168959512665
10
148.70390056186034
20
13.69667772660841
10
147.91137341615689
20
14.372329569900561
10
106.72540616052402
20
14.37456969298319
10
105.93062357468671
20
13.68566868857352
10
106.71515591349001
20
13.02411710051228
10
113.34888338358681
20
13.020488403444233
10
108.13495183580109
20
1.5170985618783561
10
108.11420155194992
20
1.3713439611042291
10
108.09136296557699
20
1.151716481107087
10
108.07087139972693
20
0.78357711915850836
10
108.05403804617391
20
-0.62194178814479528
10
107.9045249909786
20
-8.4085224616278538
10
109.21671184639671
20
-5.6585998735927214
10
109.3322848897414
20
0.45714457844042067
10
109.33306875266501
20
0.48446525478311753
10
109.34674739002681
20
1.064394747831555
10
109.37124821094721
20
1.171571245328322
10
109.3993097803282
20
1.2502170362290577
10
114.74485170136902
20
13.021066791515301
10
122.56593337417101
20
13.020878864027052
10
115.351372023149
20
-2.4811184350965028
10
115.29646975634891
20
-2.7802284727308684
10
115.3858911489187
20
-3.9810941913879105
10
116.31167651449552
20
-3.2773258740730853
10
116.32997026182743
20
-3.2640984203117118
10
116.37973948170841
20
-3.220384639603707
10
116.4357682752315
20
-3.1540173370754014
10
116.64109004525292
20
-2.7409592758876888
10
124.00924116092071
20
13.022877677513403
10
133.24229917967523
20
13.02304216714446
0
LWPOLYLINE
5
112
100
AcDbEntity
8
0
100
AcDbPolyline
90
4
70
1
43
0.0
10
109.25442058465983
20
-26.380772914306824
10
109.24122338829511
20
-12.428068860400803
10
113.79383865719228
20
-14.781652952582592
10
110.3978336103787
20
-23.502781651223362
0
LWPOLYLINE
5
113
100
AcDbEntity
8
0
100
AcDbPolyline
90
6
70
1
43
0.0
10
116.07307086347099
20
-15.860850969105741
10
112.86020953194971
20
-21.21585457873152
10
116.22295368967022
20
-13.838756196775652
10
116.2265981886212
20
-15.454317758709752
10
116.22665439605221
20
-15.532114964148152
10
116.1740910913781
20
-15.689125367627641
0
LWPOLYLINE
5
114
100
AcDbEntity
8
0
100
AcDbPolyline
90
3
70
1
43
0.0
10
110.68810512270372
20
-26.734525000562375
10
116.8691634952097
20
-16.393557350734682
10
120.70987470881251
20
-18.380027421631443
0
LWPOLYLINE
5
115
100
AcDbEntity
8
0
100
AcDbPolyline
90
142
70
1
43
0.0
10
68.535696244921851
20
3.02156460178412
10
68.509084908790555
20
2.8314667886443186
10
68.490355751169773
20
2.6411557135293151
10
68.476186155895903
20
2.3570674705501906
10
68.476276346163559
20
-5.0872867756716014
10
68.483649736315314
20
-5.2885749893443981
10
68.499999239145836
20
-5.4908281018956586
10
68.525667455842253
20
-5.6930797765785437
10
68.56099698757771
20
-5.8943636766575764
10
68.606330435543441
20
-6.0937134653995582
10
68.632855690982069
20
-6.1923610877897772
10
68.662010400920281
20
-6.2901628060649273
10
68.693837390506815
20
-6.3869978281404638
10
68.728379484888137
20
-6.4827453619195685
10
68.765679509212987
20
-6.5772846153085975
10
68.805780288630103
20
-6.6704947962184633
10
68.848724648287316
20
-6.7622551125618884
10
68.894555413328817
20
-6.8524447722415971
10
68.943315408909712
20
-6.9409429831616762
10
68.995047460171918
20
-7.0276289532366709
10
69.049794392262811
20
-7.1123818903756728
10
69.107599030335678
20
-7.1950810024718521
10
69.168504199529252
20
-7.2756054974515791
10
69.232552725002748
20
-7.3538345832143923
10
69.299787431891673
20
-7.4296474676616526
10
69.370251145353905
20
-7.5029233587197286
10
69.44398669053497
20
-7.5735414642817878
10
69.521036892580923
20
-7.6413809922546516
10
69.601444576635458
20
-7.7063211505555973
10
69.694489680242896
20
-7.7749050851966786
10
69.78977049297464
20
-7.8389847020607695
10
69.887166530074865
20
-7.8986580011505803
10
69.986557306800933
20
-7.9540229824815478
10
70.087822338403839
20
-8.0051776460654764
10
70.190841140137763
20
-8.0522199919087143
10
70.29549322724732
20
-8.0952480200216996
10
70.401658114993097
20
-8.1343597304135074
10
70.50921531862285
20
-8.1696531230954861
10
70.618044353383993
20
-8.2012261980812582
10
70.72802473453703
20
-8.2291769553717131
10
70.839035977328876
20
-8.2536033949836565
10
70.950957597010984
20
-8.2746035169252519
10
71.063669108833892
20
-8.2922753212128555
10
71.177050028052236
20
-8.3067168078387112
10
71.290979869919738
20
-8.3180259768355427
10
71.405338149681029
20
-8.3263008281933253
10
71.520004382596653
20
-8.3316393619375049
10
71.63485808391215
20
-8.3341395780616931
10
71.864645952754927
20
-8.3310170575318807
10
72.093737878226875
20
-8.3177172666737533
10
72.321169982338233
20
-8.2950242055735544
10
72.54597838710788
20
-8.2637218743057019
10
72.767199214548782
20
-8.2245942729573471
10
72.878100528956111
20
-8.1954677677476866
10
73.257608868292209
20
-8.0625666930027364
10
73.56666402862902
20
-7.909933129874843
10
73.808078727785869
20
-7.7551079144664081
10
74.031045521951
20
-7.5748979908953515
10
74.193753102551455
20
-7.4122854824427131
10
74.300656951227211
20
-7.2851494200190228
10
74.398987250625837
20
-7.1522144022806069
10
74.488943864839712
20
-7.0139699403298428
10
74.570726657952491
20
-6.8709055452686707
10
74.644535494050615
20
-6.7235107282008366
10
74.710570237215961
20
-6.572275000234642
10
74.769030751539049
20
-6.4176878724665576
10
74.820116901102665
20
-6.2602388560003419
10
74.883356394213024
20
-6.0197700955391165
10
74.931127802101855
20
-5.7756155854694953
10
74.964105666057094
20
-5.5294274257616962
10
74.986229845709659
20
-5.2008685725973001
10
74.98792767650184
20
2.3563647672654042
10
74.976397346266793
20
2.6659877159477201
10
74.943242942164034
20
2.9754939565382306
10
74.887058361035088
20
3.2819602362819755
10
74.828960512579215
20
3.5080564525351292
10
74.756524056742805
20
3.7295651138679204
10
74.669155793757
20
3.9452529730219781
10
74.602321898521964
20
4.0852020891393277
10
74.52841223731501
20
4.2216506655809081
10
74.447251047244208
20
4.3542332957413237
10
74.358662565406121
20
4.482584573030179
10
74.30756629184998
20
4.551883818555325
10
74.254094776329566
20
4.6188676314955028
10
74.19833650372766
20
4.6835462644680774
10
74.140379958912959
20
4.745929970114501
10
74.080313626765019
20
4.8060290010612334
10
74.018225992168937
20
4.8638536099156209
10
73.954205539992927
20
4.919414049322314
10
73.888340755118406
20
4.972720571906847
10
73.820720122418606
20
5.0237834302965902
10
73.751432126774489
20
5.0726128771034382
10
73.680565253063378
20
5.119219164979314
10
73.534448810942663
20
5.2058032743852891
10
73.383078675075012
20
5.2836177795438743
10
73.227162724474965
20
5.3527447014535028
10
73.067408838163828
20
5.413266061145352
10
72.904524895154282
20
5.4652638796255815
10
72.739218774464021
20
5.5088201779030888
10
72.572198355110686
20
5.5440169770104148
10
72.404171516116094
20
5.5709362979541748
10
72.235846136492
20
5.5896601617373562
10
72.135790267746884
20
5.5993076689833288
10
71.933892148849736
20
5.6127783516235468
10
71.730309333751848
20
5.6180756457174521
10
71.525878397295841
20
5.6147104159531391
10
71.321435914310314
20
5.6021935270323411
10
71.11781845962787
20
5.5800358436440529
10
70.915862608076154
20
5.5477482304872874
10
70.815769213113072
20
5.527652845463308
10
70.716404934495131
20
5.5048415522564937
10
70.617874344075517
20
5.4792532089500128
10
70.52028201371013
20
5.4508266736411306
10
70.423732515249867
20
5.4195008044071082
10
70.32833042055745
20
5.3852144593361118
10
70.234180301476044
20
5.3479064965154066
10
70.141386729864735
20
5.3075157740372561
10
70.050054277579875
20
5.2639811499871012
10
69.960287516470544
20
5.2172414824485713
10
69.872191018395824
20
5.1672356295061936
10
69.785869355204795
20
5.1139024492526914
10
69.701427098752902
20
5.057180799766229
10
69.618968820897408
20
4.9970095391413452
10
69.538599093489211
20
4.9333275254662112
10
69.460422488380104
20
4.8660736168235399
10
69.389320311802294
20
4.800218822248552
10
69.321312319962075
20
4.7319736021663621
10
69.256349658941872
20
4.6614395700585192
10
69.19438347482992
20
4.5887183394056592
10
69.13536491369905
20
4.5139115236820526
10
69.079245121637996
20
4.4371207363683425
10
69.025975244726851
20
4.358447590940612
10
68.975506429047527
20
4.277993700883143
10
68.927789820684211
20
4.1958606796665663
10
68.882776565715176
20
4.1121501407865253
10
68.840417810226882
20
4.0269636976981911
10
68.800664700295798
20
3.940402963895393
10
68.763468382011069
20
3.852569552855583
10
68.728780001451923
20
3.7635650780580354
10
68.666731637832982
20
3.5824493910954516
10
68.614128778102895
20
3.3978688108472852
10
68.57058059091105
20
3.210636245130444
0
LWPOLYLINE
5
116
100
AcDbEntity
8
0
100
AcDbPolyline
90
75
70
1
43
0.0
10
85.976139306234941
20
-5.5491832478087417
10
86.005166785239453
20
-5.7416149837395096
10
86.042452928447801
20
-5.9321288464616382
10
86.088630189152809
20
-6.1201305917516038
10
86.144331020635065
20
-6.3050259753695181
10
86.175950417073196
20
-6.3961230802347027
10
86.210187876188684
20
-6.4862207530854921
10
86.247122454640689
20
-6.5752447134068479
10
86.286833209092023
20
-6.6631206806637238
10
86.329399196202303
20
-6.7497743743247174
10
86.374899472634311
20
-6.8351315138697828
10
86.423413095046286
20
-6.9191178187588775
10
86.475019120101052
20
-7.0016590084646833
10
86.529796604460913
20
-7.0826808024680767
10
86.587824604785041
20
-7.162108920227638
10
86.645100045259824
20
-7.2332863494116282
10
86.704943896251748
20
-7.3016246207466793
10
86.767250211129991
20
-7.3671511740590176
10
86.83191304328146
20
-7.4298934491926039
10
86.898826446075873
20
-7.4898788859668475
10
86.967884472894198
20
-7.5471349242407104
10
87.038981177111509
20
-7.601689003829506
10
87.112010612106147
20
-7.6535685645799276
10
87.186866831257703
20
-7.7028010463204755
10
87.263443887934955
20
-7.7494138888919242
10
87.341635835524812
20
-7.793434532127776
10
87.421336727397815
20
-7.8348904158656287
10
87.502440616932731
20
-7.8738089799348927
10
87.584841557507815
20
-7.9102176641749811
10
87.668433602501409
20
-7.9441439084207559
10
87.83876721924662
20
-8.0046588362743041
10
88.012593894180554
20
-8.0555732821808306
10
88.189066054329487
20
-8.097106764813816
10
88.367336126699229
20
-8.1294788028617404
10
88.546556538314235
20
-8.152908915012631
10
88.725879716189894
20
-8.1676166199454201
10
88.904458087341027
20
-8.1738214363463157
10
92.298283313160937
20
-8.1700164466678888
10
92.296724834246561
20
5.4459980501023892
10
90.136435963308941
20
5.4460777943845642
10
90.137701958878992
20
0.34597478524619868
10
89.098242098960782
20
0.34694293592338005
10
88.580033929822108
20
0.31566950992009879
10
88.32373002725808
20
0.28148955468668641
10
88.154367301769071
20
0.2497778627880507
10
87.98644879744009
20
0.20987883132920621
10
87.820179360129259
20
0.16089477845844161
10
87.655763835708967
20
0.10192802232404581
10
87.583285142913624
20
0.073583244518431498
10
87.441725263176536
20
0.009810800967443396
10
87.304977257859719
20
-0.063023580476510702
10
87.173379366915015
20
-0.14446160456691359
10
87.047269830291043
20
-0.23404497607180022
10
86.926986887933708
20
-0.33131539975465779
10
86.812868779793945
20
-0.43581458038261189
10
86.705253745814858
20
-0.54708422271869506
10
86.604480025950124
20
-0.66466603152457548
10
86.510885860142025
20
-0.78810171156555975
10
86.424809488341907
20
-0.91693296760558973
10
86.346589150496115
20
-1.0507015044008761
10
86.276563086550141
20
-1.188949026730824
10
86.215069536460746
20
-1.3312172393525532
10
86.162446740162991
20
-1.4770478470240953
10
86.12878474162882
20
-1.5772631458044084
10
86.098457352494734
20
-1.67795918868478
10
86.071299205720152
20
-1.7791098695811343
10
86.047144934270818
20
-1.8806890824116635
10
86.025829171103837
20
-1.9826707211118433
10
86.007186549180915
20
-2.085028679592595
10
85.977259260914707
20
-2.2907691315945158
10
85.956040133151873
20
-2.4977015897925399
10
85.934434613890986
20
-2.9143071303119528
10
85.93584903817009
20
-4.4830820059055441
10
85.930449066025176
20
-4.8691483217130536
10
85.94669959155317
20
-5.2582395409217488
0
LWPOLYLINE
5
117
100
AcDbEntity
8
0
100
AcDbPolyline
90
70
70
1
43
0.0
10
26.743893420571112
20
9.3114083391960776
10
26.90665305610537
20
9.1634450341666707
10
27.090550306641504
20
9.0450743901424158
10
27.175100766659853
20
9.0049129216345118
10
27.378021870701108
20
8.933045030619267
10
27.595739305245854
20
8.8907698006100873
10
27.832480593293901
20
8.8780872316083332
10
27.982557659824575
20
8.882314754608613
10
28.208730140370811
20
8.9161349386154143
10
28.417992528912691
20
8.9774340221283637
10
28.608231063951735
20
9.0662120051460988
10
28.779445745487013
20
9.1845826491703502
10
28.897816389510812
20
9.2902707241923963
10
29.035210887040201
20
9.4488028367245533
10
29.155695292563912
20
9.6305863257612128
10
29.26138336758595
20
9.8335074298033796
10
29.348047589103331
20
10.05967991034913
10
29.392436580611964
20
10.197074407877611
10
29.436825572120604
20
10.385199181414922
10
29.474873279129952
20
10.58812028545753
10
29.504465940134654
20
10.80795148150218
10
29.525603555140147
20
11.042579008049412
10
29.538286124142822
20
11.292002865101489
10
29.542513647142638
20
11.558336814155609
10
29.542513647142638
20
11.596384521163142
10
29.53617236264245
20
11.879628562221109
10
29.519262270639057
20
12.143848749774403
10
29.491783371133351
20
12.395386368325941
10
29.45584942562482
20
12.627900133373263
10
29.409346672615811
20
12.845617567917092
10
29.352275112104959
20
13.048538671959252
10
29.284634744089555
20
13.23243592249719
10
29.20853933007356
20
13.403650604032462
10
29.119761347056738
20
13.555841432062152
10
29.022528318037075
20
13.69323592959017
10
28.986594372529005
20
13.737624921100171
10
28.836517305998768
20
13.891929510631142
10
28.667416385964323
20
14.016641439157409
10
28.483519135425919
20
14.113874468177073
10
28.282711792885493
20
14.181514836190221
10
28.064994358342123
20
14.223790066199403
10
27.832480593293901
20
14.238586396702431
10
27.67183471926046
20
14.232245112201323
10
27.445662238715162
20
14.19842492819453
10
27.238513611672722
20
14.137125844682492
10
27.048275076633672
20
14.046234100163472
10
26.877060395098855
20
13.925749694637942
10
26.758689751074598
20
13.820061619617722
10
26.623409015047859
20
13.6615295070842
10
26.502924609523237
20
13.479746018047528
10
26.399350296002012
20
13.276824914005832
10
26.310572312983371
20
13.048538671959252
10
26.27041084447502
20
12.919599220433149
10
26.226021852965911
20
12.7335882083953
10
26.187974145957931
20
12.530667104353144
10
26.158381484952322
20
12.310835908308491
10
26.137243869947731
20
12.076208381761262
10
26.124561300944613
20
11.824670763209271
10
26.120333777944325
20
11.558336814155609
10
26.122447539445147
20
11.399804701622539
10
26.130902585447071
20
11.141925798570352
10
26.145698915950106
20
10.905184510521391
10
26.168950292454163
20
10.689580837477022
10
26.200656714960591
20
10.493001017937329
10
26.23870442196813
20
10.317558813402233
10
26.293662220978611
20
10.129434039863099
10
26.371871396495873
20
9.9138303668191838
10
26.462763141014424
20
9.7151367857795776
10
26.564223693035736
20
9.5354670582423768
10
26.600157638541532
20
9.4847367822321758
0
LWPOLYLINE
5
118
100
AcDbEntity
8
0
100
AcDbPolyline
90
12
70
1
43
0.0
10
57.376732137639017
20
-8.1731645055074296
10
57.377724755352105
20
5.4438971407244026
10
51.524711296010075
20
5.445596388269224
10
51.525968797059249
20
3.496985165840214
10
55.216420701957318
20
3.4960529430982201
10
55.216406197903787
20
-0.46324933300138593
10
52.27564189936583
20
-0.46514730895069079
10
52.276347016769705
20
-2.4433567232258611
10
55.216566017776145
20
-2.4437879085958225
10
55.216393099363827
20
-6.1934751169578695
10
51.527181518314592
20
-6.1929185423236977
10
51.527870786558637
20
-8.1747121858993523
0
LWPOLYLINE
5
119
100
AcDbEntity
8
0
100
AcDbPolyline
90
4
70
1
43
0.0
10
32.296747886426601
20
5.445988802930513
10
30.137113605812381
20
5.4467711902866531
10
30.136649762878278
20
-8.173434217339036
10
32.296578840839629
20
-8.1733030017967359
0
LWPOLYLINE
5
120
100
AcDbEntity
8
0
100
AcDbPolyline
90
8
70
1
43
0.0
10
36.616421885132688
20
5.4460477054694811
10
36.616384575469979
20
-6.193489008284816
10
34.366007168633125
20
-6.1938429618599011
10
34.367748428583141
20
-8.1746112482255722
10
41.024988093969121
20
-8.1746152953705842
10
41.025116221345797
20
-6.1926513127796179
10
38.776856950726597
20
-6.193817151404347
10
38.776721570530299
20
5.4459984286390863
0
LWPOLYLINE
5
121
100
AcDbEntity
8
0
100
AcDbPolyline
90
18
70
1
43
0.0
10
37.58594615378297
20
12.630491702486319
10
37.592577801876814
20
12.65038664677331
10
37.745105708071151
20
13.10133871725656
10
37.851212077596763
20
13.432921122024251
10
37.944055150931952
20
13.147760253924393
10
38.089951409030171
20
12.690176535345472
10
39.277016418101084
20
9.1356131562342835
10
40.278395280500725
20
9.1356131562351948
10
40.278395280496611
20
14.155770764420142
10
39.635125415246883
20
14.155770764420142
10
39.635125415250073
20
9.8849893910096416
10
38.189426130458742
20
14.155770764419231
10
37.585946153782061
20
14.155770764419231
10
36.133615220901902
20
9.9579375200560207
10
36.133615220898719
20
14.15577076441741
10
35.490345355649424
20
14.15577076441741
10
35.490345355653069
20
9.135613156231102
10
36.385617848525726
20
9.1356131562324663
0
LWPOLYLINE
5
122
100
AcDbEntity
8
0
100
AcDbPolyline
90
48
70
1
43
0.0
10
57.887939961290158
20
13.617148541929511
10
57.874313398790036
20
13.617148541929511
10
57.856383711287442
20
13.875981510679141
10
57.782513398787614
20
14.077439479429362
10
57.622580586287775
20
14.208541354430508
10
57.350049336287142
20
14.254441354428311
10
57.19800558628684
20
14.24748463567812
10
57.059588398787575
20
14.226471041930379
10
57.059588398787575
20
13.85102338568003
10
57.201591523787101
20
13.879424010679482
10
57.398100898787099
20
13.81208010442924
10
57.463364961288796
20
13.610191823179321
10
57.463364961290146
20
11.67012791692968
10
57.494204023790196
20
11.33620541692971
10
57.583852461290036
20
11.071634948179501
10
57.895829023790597
20
10.71447557317833
10
58.327575898790656
20
10.540916198181092
10
58.808808711288748
20
10.494585885680401
10
59.389013398790652
20
10.5654440106814
10
59.845861836290169
20
10.784903385681439
10
60.154252461287797
20
11.16737947943102
10
60.288509961287673
20
11.719900729431171
10
59.842275898787648
20
11.719900729431171
10
59.764819648790777
20
11.334340729431
10
59.558986836290863
20
11.07163494818041
10
59.251313398789989
20
10.920308385681439
10
58.865466523788655
20
10.870105260677974
10
58.493246211290639
20
10.902020104429539
10
58.189158711290041
20
11.018778229429241
10
57.984043086290527
20
11.248636823179359
10
57.909455586290299
20
11.62071369817977
10
57.948183711288941
20
11.861545260678213
10
58.0579133987899
20
12.00670401067919
10
58.235058711290094
20
12.081004635679619
10
58.483205586287568
20
12.116361979431073
10
59.194655586288718
20
12.204719479430421
10
59.825063398790036
20
12.363863385680361
10
60.077298242538753
20
12.502710885681612
10
60.274524805038716
20
12.693411041930172
10
60.402112461287743
20
12.950594479431402
10
60.444498242538884
20
13.291832291930401
10
60.348825430037785
20
13.769694323182192
10
60.086908555037546
20
14.102325885682152
10
59.69740402378784
20
14.293384635680471
10
59.219757148787728
20
14.353700104430121
10
58.755736836286815
20
14.304285885679288
10
58.408618086287802
20
14.162641354429519
10
58.13250089878693
20
13.93235244817925
0
LWPOLYLINE
5
123
100
AcDbEntity
8
0
100
AcDbPolyline
90
90
70
1
43
0.0
10
30.719878802883166
20
11.507606538144042
10
30.57402925935412
20
11.31736800310636
10
30.457772376829784
20
11.133470752567971
10
30.368994393812052
20
10.953801025032133
10
30.303467787297915
20
10.769903774494651
10
30.256965034288896
20
10.554300101450281
10
30.240054942285042
20
10.334468905405172
10
30.242168703785431
20
10.262601014390381
10
30.267533841791654
20
10.040656056844913
10
30.324605402302502
20
9.8335074298033796
10
30.41126962382123
20
9.6390413717631418
10
30.529640267844123
20
9.4614854057276716
10
30.6797173343748
20
9.2966120086934989
10
30.825566877905199
20
9.1761276031684247
10
30.998895320940854
20
9.0683257666464669
10
31.191247617479799
20
8.9837753066294663
10
31.402623767522989
20
8.9245899846173415
10
31.628796248068738
20
8.8886560391092626
10
31.876106343619092
20
8.8780872316083332
10
32.08114120916116
20
8.8844285161089829
10
32.315768735708836
20
8.9161349386154143
10
32.5292586472533
20
8.9689789761264365
10
32.725838466791629
20
9.0450743901424158
10
32.905508194328817
20
9.1423074191611704
10
33.068267829863089
20
9.2649055861870675
10
33.182410950886606
20
9.3790487072101332
10
33.307122879411956
20
9.5418083427434794
10
33.408583431431907
20
9.7235918317801406
10
33.486792606948264
20
9.9265129358223056
10
33.543864167460939
20
10.15057165486769
10
33.579798112966728
20
10.395767988917671
10
32.916077001832036
20
10.463408356931259
10
32.901280671328109
20
10.25414596838845
10
32.850550395317896
20
10.03642853384417
10
32.759658650799793
20
9.8483037603059529
10
32.634946722275359
20
9.6897716477733393
10
32.516576078251092
20
9.5904248572533106
10
32.334792589213073
20
9.4910780667332766
10
32.1255302006698
20
9.4318927447211536
10
31.89090267412212
20
9.4107551297161081
10
31.753508176594103
20
9.4170964142172142
10
31.535790742051184
20
9.4614854057276716
10
31.341324684010033
20
9.5460358657442157
10
31.174337525477309
20
9.6728615557703961
10
31.12572101096703
20
9.7214780702802273
10
31.001009082441211
20
9.9011477978160638
10
30.927027429924692
20
10.099841378857029
10
30.901662291921195
20
10.319672574902601
10
30.916458622424223
20
10.478204687434303
10
30.971416421434242
20
10.679012029975182
10
31.0665356889549
20
10.884046895517258
10
31.201816424982098
20
11.093309284060071
10
31.218726516985953
20
11.11444689906466
10
31.315959546005171
20
11.237045066089191
10
31.436443951529789
20
11.370212040616481
10
31.578065972058091
20
11.516061584146431
10
31.740825607591891
20
11.672479935178213
10
31.92472285812892
20
11.839467093712301
10
32.131871485171821
20
12.017023059748222
10
32.358043965718032
20
12.207261594787724
10
32.393977911226102
20
12.236854255793332
10
32.594785253765622
20
12.4059551758287
10
32.774454981302824
20
12.566601049861221
10
32.935100855335349
20
12.720905639392182
10
33.076722875864562
20
12.864641421422222
10
33.199321042889103
20
13.002035918950243
10
33.302895356410772
20
13.128861608975511
10
33.433948569437689
20
13.319100144014101
10
33.541750405960101
20
13.509338679053602
10
33.6263008659771
20
13.701690975592554
10
33.628414627477014
20
13.71014602159403
10
33.685486187988779
20
13.925749694637942
10
33.700282518490894
20
14.147694652183411
10
30.23371365778349
20
14.147694652183411
10
30.23371365778349
20
13.52836253255691
10
32.806161403808801
20
13.52836253255691
10
32.685676998284649
20
13.35503408952218
10
32.533486170253127
20
13.17747812348534
10
32.497552224747317
20
13.141544177978632
10
32.38552286522372
20
13.03374234145622
10
32.229104514191476
20
12.89423408242828
10
32.030410933150961
20
12.72301940089255
10
31.789442122101722
20
12.520098296851303
10
31.776759553099062
20
12.509529489349463
10
31.559042118555229
20
12.321404715811241
10
31.364576060514988
20
12.15019003427596
10
31.18913385597989
20
11.989544160243442
10
31.036943027947931
20
11.8458083782134
10
30.905889814921011
20
11.712641403686119
10
30.793860455398772
20
11.594270759662322
0
LWPOLYLINE
5
124
100
AcDbEntity
8
0
100
AcDbPolyline
90
12
70
1
43
0.0
10
83.746924180039969
20
9.1989149481992172
10
84.22858730504187
20
9.1989149482001267
10
84.228587305040037
20
11.393867291949391
10
87.230877617538681
20
11.393867291951663
10
87.2308776175405
20
9.1989149482024004
10
87.712182148791726
20
9.1989149482024004
10
87.712182148787633
20
14.254441354451499
10
87.230877617536876
20
14.254441354451499
10
87.230877617538681
20
11.80474401070159
10
84.228587305040037
20
11.80474401069932
10
84.228587305037763
20
14.25444135444922
10
83.74692418003724
20
14.254441354448321
0
LWPOLYLINE
5
125
100
AcDbEntity
8
0
100
AcDbPolyline
90
10
70
1
43
0.0
10
76.40421511753766
20
13.879424010694489
10
78.918172461289032
20
13.879424010696313
10
76.503473867541743
20
10.919519479443352
10
76.503473867541743
20
10.60087307319327
10
79.293333242538665
20
10.600873073195093
10
79.293333242538665
20
10.976320729444982
10
77.069908555040001
20
10.976320729443161
10
79.456278242537792
20
13.89340916694618
10
79.456278242537792
20
14.254441354445131
10
76.40421511753766
20
14.254441354443321
0
LWPOLYLINE
5
126
100
AcDbEntity
8
0
100
AcDbPolyline
90
4
70
1
43
0.0
10
54.123632312996506
20
12.10563753651104
10
51.369832635406965
20
12.105637536509221
10
51.369832635406965
20
11.252922091251552
10
54.123632312996506
20
11.252922091253371
0
LWPOLYLINE
5
127
100
AcDbEntity
8
0
100
AcDbPolyline
90
4
70
1
43
0.0
10
75.406176992541987
20
9.1989149481928472
10
75.852124180040846
20
9.1989149481928472
10
75.852124180037663
20
14.254441354442402
10
75.406176992538789
20
14.254441354442402
0
LWPOLYLINE
5
128
100
AcDbEntity
8
0
100
AcDbPolyline
90
10
70
1
43
0.0
10
46.180562085367917
20
9.1356131562401952
10
49.562702614000038
20
9.135613156242016
10
49.562702613996876
20
14.155770764428322
10
48.899537804461033
20
14.155770764427409
10
48.899537804461943
20
11.874483819625311
10
46.545302730610274
20
11.874483819623041
10
46.545302730610274
20
11.28426713913586
10
48.899537804462852
20
11.284267139138588
10
48.899537804462852
20
9.7324614848243982
10
46.180562085367917
20
9.7324614848221245
0
LWPOLYLINE
5
129
100
AcDbEntity
8
0
100
AcDbPolyline
90
4
70
1
43
0.0
10
56.564729023792104
20
9.198914948178297
10
56.564729023787557
20
14.254441354427401
10
56.117921211287012
20
14.254441354427401
10
56.117921211290209
20
9.198914948178297
0
LWPOLYLINE
5
130
100
AcDbEntity
8
0
100
AcDbPolyline
90
48
70
1
43
0.0
10
79.625893086286837
20
14.22647104194721
10
79.625893086286837
20
13.851023385697321
10
79.767967930037685
20
13.879424010696313
10
79.964477305039068
20
13.812080104447428
10
80.029813086287533
20
13.610191823197511
10
80.029813086288883
20
11.670127916947422
10
80.060221836290566
20
11.336205416946079
10
80.150085430040235
20
11.07163494819633
10
80.461703398790178
20
10.71447557319652
10
80.893665430040528
20
10.540916198198369
10
81.374969961289935
20
10.494585885697688
10
81.955891836289098
20
10.56544401069959
10
82.412309961290703
20
10.784903385699181
10
82.720485430038934
20
11.167379479449211
10
82.855029805039067
20
11.719900729449362
10
82.40879574254086
20
11.719900729448449
10
82.330980898790131
20
11.334340729449188
10
82.125506680039976
20
11.0716349481986
10
81.817689805038754
20
10.920308385698261
10
81.431699492540716
20
10.87010526069616
10
81.060196367540826
20
10.902020104447271
10
80.755463398790667
20
11.018778229446509
10
80.550060898790889
20
11.24863682319755
10
80.475760273788651
20
11.620713698196141
10
80.514990430040143
20
11.86154526069595
10
80.624791836287841
20
12.006704010697382
10
80.801435117538873
20
12.081004635697353
10
81.049223398788882
20
12.11636197944836
10
81.760960273790261
20
12.204719479448162
10
82.391296367538871
20
12.363863385698551
10
82.643387773789982
20
12.50271088569934
10
82.840686055038987
20
12.693411041948359
10
82.968273711287566
20
12.95059447944868
10
83.010731211286839
20
13.291832291947232
10
82.914986680037174
20
13.76969432319993
10
82.6531415237869
20
14.102325885698974
10
82.263636992537613
20
14.293384635698661
10
81.785846680037139
20
14.353700104448313
10
81.322041523787462
20
14.30428588569657
10
80.97492277378889
20
14.162641354447711
10
80.698733867538962
20
13.932352448196518
10
80.454746680037701
20
13.617148541947701
10
80.440331211287685
20
13.617148541947701
10
80.422760117538957
20
13.875981510697331
10
80.348459492538979
20
14.077439479446181
10
80.189028711287861
20
14.208541354447791
10
79.91628230503693
20
14.254441354445131
10
79.764095117539
20
14.247484635695402
0
LWPOLYLINE
5
131
100
AcDbEntity
8
0
100
AcDbPolyline
90
33
70
1
43
0.0
10
63.488528867540467
20
10.853825104433328
10
63.716092461289918
20
11.100035573183503
10
64.009422148790222
20
11.71947041693465
10
64.105166680039915
20
12.427621354433992
10
64.009422148787507
20
13.1677588544353
10
63.716092461287204
20
13.783679479432518
10
63.488528867537752
20
14.0207099481845
10
63.202514492538732
20
14.20158463568441
10
62.858479648787579
20
14.315617448183271
10
62.455778867537461
20
14.35370010443375
10
61.840647148787866
20
14.268498229434501
10
61.382651211287786
20
14.01404010443229
10
61.063215898788712
20
13.603091666931961
10
60.862403398789873
20
13.05100072943196
10
61.30835058628783
20
13.05100072943196
10
61.457382148788859
20
13.433118229431331
10
61.690826680038739
20
13.73075104193367
10
62.020374336289024
20
13.921738073184313
10
62.455778867538818
20
13.985639479433303
10
62.75111668003683
20
13.95178822943353
10
63.000482773787567
20
13.851023385684583
10
63.3760738675387
20
13.51129166693454
10
63.592019023788922
20
13.047486510683479
10
63.659219492538803
20
12.548252291932389
10
60.848059648790702
20
12.548252291929662
10
60.918846055038998
20
11.79420135443115
10
61.198549180038739
20
11.13546463568218
10
61.422670273788746
20
10.875914479432144
10
61.704811836290006
20
10.671731198182442
10
62.048416367540078
20
10.53862119818131
10
62.455778867540637
20
10.494585885683133
10
62.858479648790322
20
10.536254479432039
10
63.202514492540104
20
10.661188541934282
0
LWPOLYLINE
5
132
100
AcDbEntity
8
0
100
AcDbPolyline
90
24
70
1
43
0.0
10
71.724136367538904
20
11.068192448188253
10
71.969271055040281
20
10.832811510691041
10
72.265756367540234
20
10.650717604441979
10
72.612014492537583
20
10.533529166940301
10
73.00575043004028
20
10.494585885691322
10
73.399629805041954
20
10.5335291669412
10
73.745457617540069
20
10.650717604442892
10
74.042373242540194
20
10.83281151069195
10
74.287149336289076
20
11.06819244819053
10
74.620211211290552
20
11.680957448192189
10
74.733383398787737
20
12.427621354442181
10
74.620211211288733
20
13.174715573192319
10
74.287149336287257
20
13.787193698193278
10
74.042373242536982
20
14.021785729443312
10
73.745457617536886
20
14.201584635692141
10
73.399629805037421
20
14.31561744819237
10
73.005750430037097
20
14.353700104441032
10
72.612014492535764
20
14.315617448190551
10
72.265756367537492
20
14.201584635691232
10
71.969271055038917
20
14.021785729441492
10
71.72413636753754
20
13.787193698191462
10
71.391433086287662
20
13.1747155731905
10
71.278260898789085
20
12.427621354439449
10
71.391433086288998
20
11.680957448190384
0
LWPOLYLINE
5
133
100
AcDbEntity
8
0
100
AcDbPolyline
90
33
70
1
43
0.0
10
64.792017148789
20
13.270388385685241
10
64.806360898787702
20
12.958770416935291
10
64.866317773788978
20
12.53742276068669
10
65.01527761754005
20
12.194248541933579
10
65.280636992540622
20
11.949902760686651
10
65.691155117538983
20
11.8187291669351
10
65.691155117538983
20
11.80474401068432
10
65.263137617540011
20
11.641727291936601
10
64.954962148789051
20
11.35148151068506
10
64.769354023790115
20
10.965491198185189
10
64.707102148790909
20
10.51602979193512
10
64.738228086290746
20
10.198172291934949
10
64.830816992539908
20
9.9246369794341263
10
65.163950586291776
20
9.5140471356853595
10
65.652211836290903
20
9.2768015106853436
10
66.243676367541852
20
9.198914948185573
10
68.559187930041844
20
9.1989149481873937
10
68.559187930038647
20
14.254441354436491
10
68.077524805039047
20
14.254441354436491
10
68.077524805039957
20
12.010146510686353
10
66.250633086288872
20
12.010146510684081
10
65.947119336288779
20
12.031160104435461
10
65.716041523789954
20
12.123390416935312
10
65.418839023787768
20
12.459607916934601
10
65.284151211286826
20
12.933812291934368
10
65.238251211289025
20
13.468547291934101
10
65.22390746128896
20
13.65293619818658
10
65.20633636753746
20
13.86888135443451
10
65.170907305037417
20
14.081312291935319
10
65.103563398787173
20
14.254441354434222
10
64.572414336289057
20
14.254441354434222
10
64.69663121128724
20
13.9961821356851
10
64.763903398787079
20
13.642034948184572
0
LWPOLYLINE
5
134
100
AcDbEntity
8
0
100
AcDbPolyline
90
25
70
1
43
0.0
10
41.962833896720888
20
9.5666702824350978
10
42.301047949584706
20
9.3478258952882243
10
42.698946835304923
20
9.2085612852865761
10
42.745368371973655
20
9.2019296371913679
10
43.110109017217368
20
9.1555081005244574
10
43.587587680082819
20
9.1356131562383762
10
45.318447832972183
20
9.1356131562392875
10
45.318447832968111
20
14.155770764425144
10
43.508007902935788
20
14.155770764423321
10
43.083582424832009
20
14.135875820136333
10
42.698946835301747
20
14.069559339182431
10
42.460207503868787
20
13.996611210134231
10
42.102098506719813
20
13.817556711558153
10
41.929675656240747
20
13.684923749651261
10
41.644514788139972
20
13.359972992978332
10
41.458828641470973
20
13.048285532496724
10
41.306300735278001
20
12.630491702489511
10
41.259879198610633
20
12.458068852010451
10
41.193562717656718
20
12.060169966287964
10
41.173667773372024
20
11.622481191994211
10
41.193562717659013
20
11.204687361988359
10
41.25324755051497
20
10.8001568281702
10
41.365985568137603
20
10.422152886736063
10
41.458828641473232
20
10.209940147683019
10
41.684304676716685
20
9.8584627986301712
0
LWPOLYLINE
5
135
100
AcDbEntity
8
0
100
AcDbPolyline
90
13
70
1
43
0.0
10
64.244145758089871
20
1.2688803074383941
10
64.248042311000063
20
5.4442197798066436
10
62.084714219830857
20
5.4439989075663089
10
62.088537294280748
20
1.2662068907961841
10
62.089329750231173
20
1.1530035450437022
10
61.85893726786297
20
0.2104034272410904
10
59.371562201827608
20
-8.1738251701926856
10
61.4445368480947
20
-8.1738072730427156
10
63.058749550969431
20
-2.0402697026238448
10
64.684293205364156
20
-8.1771294027416843
10
66.950368588444249
20
-8.1731749740342821
10
64.509206735673615
20
0.060821158392627694
10
64.248230996370225
20
1.0537453095603251
0
LWPOLYLINE
5
136
100
AcDbEntity
8
0
100
AcDbPolyline
90
6
70
1
43
0.0
10
21.765928681022171
20
5.4463631410962963
10
21.766025931000968
20
3.4968858465822441
10
25.277300732394909
20
3.495336968025641
10
25.276175378787684
20
-8.173137921491616
10
27.43592714078796
20
-8.1737874818868494
10
27.43633641178031
20
5.4462017050013856
0
LWPOLYLINE
5
137
100
AcDbEntity
8
0
100
AcDbPolyline
90
65
70
1
43
0.0
10
72.812931686384218
20
2.6318977560422341
10
72.826843644222208
20
2.3573043601486465
10
72.821616554844695
20
-5.2305242724937662
10
72.813123394120794
20
-5.3788872754489603
10
72.787875762410749
20
-5.5275823651586506
10
72.761810107026562
20
-5.6252791516976677
10
72.728409227889188
20
-5.7206968834666441
10
72.687717608110233
20
-5.8128649009327091
10
72.639779730815917
20
-5.9008125445366213
10
72.584640079109704
20
-5.9835691547336864
10
72.522343136116888
20
-6.0601640719673933
10
72.452933384950938
20
-6.1296266366985037
10
72.415575107281697
20
-6.1613799557612765
10
72.376455308735785
20
-6.1909861893677771
10
72.335579549708186
20
-6.2183240050740087
10
72.29295339058217
20
-6.2432720704323419
10
72.248582391754098
20
-6.2657090530005899
10
72.202472113609929
20
-6.2855136203384063
10
72.154628116539243
20
-6.3025644400045167
10
72.105055960933441
20
-6.3167401795476508
10
72.053761207183015
20
-6.32791950652563
10
71.820125898359962
20
-6.3647575161726291
10
71.621008861249265
20
-6.3630312036134464
10
71.424633176256066
20
-6.3306494851435682
10
71.273765450207989
20
-6.2819297959954365
10
71.13195341537994
20
-6.2123179234399686
10
71.033489250480216
20
-6.146058246866688
10
70.972366475969025
20
-6.0950617098874327
10
70.890988599954198
20
-5.9974204214508973
10
70.823833550933614
20
-5.892118085441779
10
70.754058706240812
20
-5.7418742556087636
10
70.685178490720773
20
-5.5012057161256953
10
70.635374788649187
20
-4.9588908011387485
10
70.63440233148458
20
2.1182800052551998
10
70.714646529614129
20
2.9094498614645081
10
70.782308878456206
20
3.0951430523173262
10
70.859386807730971
20
3.2350965507234819
10
70.893302542172009
20
3.2797630092431969
10
70.929538098941961
20
3.3217313629793352
10
70.967961299139915
20
3.3610241735636914
10
71.008439963840829
20
3.3976640025971383
10
71.050841914139696
20
3.431673411688279
10
71.095034971119745
20
3.4630749624516266
10
71.1408869558677
20
3.4918912164962412
10
71.188265689473155
20
3.518144735441183
10
71.237038993024257
20
3.5418580808855045
10
71.287074687604672
20
3.5630538144446295
10
71.390404534201934
20
3.5979826923544356
10
71.497197797968951
20
3.6231118620585221
10
71.606397047597952
20
3.6386218164411717
10
71.716944851785684
20
3.6446930483944011
10
71.82778377923205
20
3.6415060507974886
10
71.937856398631979
20
3.6292413165406274
10
72.046105278679079
20
3.6080793385071952
10
72.151472988071873
20
3.5782006095923871
10
72.252902095508034
20
3.5397856226741164
10
72.301809226207752
20
3.5174334364942306
10
72.342818130325213
20
3.4929326064384436
10
72.418994271623887
20
3.4384586542714715
10
72.487620910672831
20
3.3772396171993924
10
72.548985311876095
20
3.3099370606391854
10
72.603374739620904
20
3.2372125500055509
10
72.651076458305852
20
3.1597276507054621
10
72.710717972717703
20
3.0360217473471485
10
72.76951414459198
20
2.8605937930628884
0
LWPOLYLINE
5
138
100
AcDbEntity
8
0
100
AcDbPolyline
90
34
70
1
43
0.0
10
88.208895812629166
20
-5.6507319102615829
10
88.155122713887067
20
-5.4755839395115791
10
88.107240096034744
20
-5.160560280757637
10
88.102217259122867
20
-5.0732727878066708
10
88.099607743309207
20
-2.801566602352521
10
88.127472385273919
20
-2.4876748965975821
10
88.180618350098484
20
-2.264214447188805
10
88.228971078593077
20
-2.136946802883811
10
88.268946734907786
20
-2.0567468174126584
10
88.315607608400555
20
-1.981275503281722
10
88.369376111063502
20
-1.9114007885755191
10
88.430674654890936
20
-1.8479906013726559
10
88.464279695989262
20
-1.8189809331092861
10
88.499925651874051
20
-1.7919128697567432
10
88.537665324050067
20
-1.7668949023154701
10
88.577551514009883
20
-1.744035521800924
10
88.619637023251912
20
-1.7234432192308291
10
88.663974653284185
20
-1.7052264855988142
10
88.862629875218772
20
-1.6591694656976863
10
89.216591620632698
20
-1.6272130631937201
10
90.136712898168298
20
-1.6346790287348067
10
90.136374261138826
20
-6.1929324110019479
10
88.8908550876654
20
-6.1775993076885261
10
88.695340366251457
20
-6.1420406920065043
10
88.649603213596038
20
-6.1268802339759523
10
88.60616752965052
20
-6.1090833744515285
10
88.564978267354945
20
-6.0887708754539744
10
88.525980379642547
20
-6.0660634989808404
10
88.489118819446048
20
-6.0410820070528626
10
88.454338539701908
20
-6.0139471616726059
10
88.421584493341925
20
-5.9847797248535253
10
88.361934912518791
20
-5.9208301249395836
10
88.309729700449239
20
-5.8501993033755753
10
88.26452848060714
20
-5.7738533562419425
0
LWPOLYLINE
5
139
100
AcDbEntity
8
0
100
AcDbPolyline
90
28
70
1
43
0.0
10
219.89993428366145
20
31.958952583244734
10
219.89993428366145
20
21.958952583244738
10
213.89993428366142
20
21.958952583244738
10
213.89993428366142
20
-28.041047416755262
10
219.89993428366145
20
-28.041047416755262
10
219.89993428366145
20
-38.041047416755262
10
174.89993428366162
20
-38.041047416755262
10
174.89993428366162
20
-44.041047416755276
10
124.89993428366162
20
-44.041047416755276
10
124.89993428366162
20
-38.041047416755262
10
34.899934283661622
20
-38.041047416755191
10
34.899934283661622
20
-44.041047416755205
10
-15.100065716338502
20
-44.041047416755205
10
-15.100065716338502
20
-38.041047416755191
10
-105.10006571633853
20
-38.041047416755191
10
-105.10006571633853
20
-44.041047416755205
10
-155.10006571633855
20
-44.041047416755205
10
-155.10006571633855
20
-38.041047416755191
10
-200.10006571633841
20
-38.041047416755191
10
-200.10006571633849
20
-28.041047416755191
10
-194.10006571633846
20
-28.041047416755191
10
-194.10006571633846
20
21.95895258324488
10
-200.10006571633849
20
21.95895258324488
10
-200.10006571633841
20
31.958952583244876
10
-155.10006571633855
20
31.958952583244876
10
-140.10006571633849
20
16.958952583244809
10
159.89993428366162
20
16.958952583244738
10
174.89993428366162
20
31.958952583244734
0
ENDSEC
0
SECTION
2
OBJECTS
0
DICTIONARY
5
C
100
AcDbDictionary
3
ACAD_GROUP
350
D
3
ACAD_MLINESTYLE
350
17
0
DICTIONARY
5
D
100
AcDbDictionary
0
DICTIONARY
5
1A
330
C
100
AcDbDictionary
0
DICTIONARY
5
17
100
AcDbDictionary
0
ENDSEC
0
EOF
